<?xml version="1.0" standalone="no"?>
<!DOCTYPE svg PUBLIC "-//W3C//DTD SVG 20010904//EN"
 "http://www.w3.org/TR/2001/REC-SVG-20010904/DTD/svg10.dtd">
<svg version="1.0" xmlns="http://www.w3.org/2000/svg"
 width="366.000000pt" height="366.000000pt" viewBox="0 0 366.000000 366.000000"
 preserveAspectRatio="xMidYMid meet">
<metadata>
Created by potrace 1.14, written by Peter Selinger 2001-2017
</metadata>
<g transform="translate(0.000000,366.000000) scale(0.100000,-0.100000)"
fill="#000000" stroke="none">
<path d="M1101 2757 c-87 -11 -147 -55 -190 -142 -51 -102 -44 -277 14 -367
51 -77 118 -108 227 -104 66 3 152 35 162 61 5 14 0 54 -7 62 -3 2 -26 -8 -53
-23 -36 -20 -63 -27 -104 -28 -78 -1 -121 23 -156 87 -24 44 -28 63 -28 132 0
89 5 119 27 161 27 52 60 80 90 75 4 0 7 4 7 10 0 7 18 9 53 6 71 -6 93 -12
124 -37 28 -22 54 -13 48 18 -2 9 -4 22 -4 27 -1 15 -59 48 -106 60 -24 6 -65
7 -104 2z"/>
<path d="M2066 2754 c-60 -15 -115 -71 -118 -118 -2 -56 3 -89 20 -115 23 -36
35 -44 132 -95 110 -58 135 -96 104 -162 -28 -59 -127 -71 -213 -25 -23 12
-47 19 -52 16 -14 -9 -11 -55 6 -71 42 -43 195 -55 265 -21 66 32 104 116 88
191 -12 53 -57 95 -155 145 -84 42 -113 72 -113 118 1 74 96 101 190 53 l40
-20 6 24 c9 37 -12 64 -59 77 -60 17 -86 17 -141 3z"/>
<path d="M1572 2751 c-9 -7 -144 -378 -145 -398 0 -7 -4 -13 -9 -13 -4 0 -7
-3 -6 -7 2 -8 -30 -111 -41 -128 -11 -19 -12 -55 -1 -56 5 -1 16 -2 23 -3 18
-3 52 10 52 20 1 5 11 39 23 75 l22 65 124 0 c69 -1 126 -3 128 -6 3 -3 15
-38 28 -77 14 -40 28 -73 32 -74 5 -1 17 -1 28 -1 49 0 52 1 46 25 -4 12 -8
27 -10 32 -2 6 -6 17 -9 25 -3 8 -29 80 -57 160 -28 80 -56 154 -61 165 -6 12
-12 30 -14 40 -2 11 -4 21 -5 23 -2 1 -4 7 -5 12 -1 6 -4 13 -5 18 -1 4 -2 10
-1 15 0 4 -3 7 -9 7 -5 0 -10 7 -10 15 0 9 -7 29 -15 44 -12 25 -20 29 -55 28
-22 0 -43 -3 -48 -6z m96 -229 c24 -70 44 -131 45 -137 1 -5 -39 -10 -95 -11
-108 -2 -110 -1 -83 62 8 19 15 38 16 42 13 56 61 183 67 177 4 -3 26 -63 50
-133z"/>
<path d="M2568 2750 c-14 -8 -46 -79 -39 -88 1 -1 -5 -15 -14 -31 -8 -16 -22
-51 -31 -78 -18 -57 -62 -180 -74 -208 -5 -11 -22 -59 -39 -106 l-30 -87 22
-4 c46 -7 64 2 76 40 7 20 12 40 12 44 0 4 8 22 18 40 l18 33 124 0 c75 0 124
-4 125 -10 0 -5 4 -18 8 -27 4 -9 8 -22 10 -30 1 -7 4 -17 7 -23 4 -5 9 -22
13 -37 6 -27 14 -30 61 -30 29 0 32 2 30 25 -1 12 -4 23 -5 25 -1 1 -3 5 -5
10 -1 4 -5 14 -8 22 -4 8 -20 53 -37 100 -17 47 -33 92 -37 100 -3 8 -7 20 -9
25 -4 18 -81 229 -96 265 -13 30 -20 36 -49 38 -19 1 -42 -3 -51 -8z m47 -108
c1 -10 26 -83 40 -117 7 -16 18 -50 26 -75 7 -25 17 -51 22 -57 12 -16 18 -15
-95 -18 -79 -2 -98 0 -98 11 0 8 12 47 26 87 14 39 32 95 41 122 8 28 17 54
20 58 5 9 18 1 18 -11z"/>
<path d="M1543 1587 c-29 -5 -53 -13 -53 -18 0 -5 -6 -9 -13 -9 -12 0 -49 -32
-77 -66 -89 -111 -79 -357 18 -450 60 -57 80 -66 171 -70 85 -4 191 43 191 85
-1 39 -15 43 -68 15 -107 -55 -216 -26 -261 71 -34 73 -32 215 4 285 18 34 69
78 98 85 52 12 77 13 77 5 0 -5 6 -7 13 -4 7 2 35 -7 61 -21 58 -31 81 -27 72
13 -16 65 -116 99 -233 79z"/>
<path d="M339 1563 c-6 -16 -28 -75 -49 -133 -87 -243 -132 -367 -146 -403
-14 -36 -13 -38 8 -46 42 -16 61 2 89 80 l26 74 124 0 124 0 16 -35 c10 -19
16 -37 14 -40 -1 -3 7 -23 19 -45 16 -30 28 -40 46 -41 54 -1 54 9 11 126 -67
182 -79 219 -73 224 3 3 1 6 -4 6 -5 0 -16 21 -23 48 -8 26 -18 53 -24 60 -5
6 -7 12 -4 12 3 0 -5 25 -18 55 -14 30 -21 55 -17 55 4 0 -2 7 -12 15 -11 8
-37 15 -58 15 -33 0 -40 -4 -49 -27z m77 -125 c10 -29 18 -56 19 -60 0 -3 3
-10 8 -14 4 -4 7 -13 7 -20 0 -7 5 -25 12 -41 6 -15 12 -30 13 -33 0 -3 5 -16
9 -29 11 -33 0 -37 -101 -36 -88 1 -88 1 -84 25 1 14 8 28 15 32 6 4 8 8 4 8
-4 0 1 24 13 54 11 30 22 63 24 73 10 41 30 93 37 93 3 0 14 -24 24 -52z"/>
<path d="M768 1577 c-12 -13 -15 -62 -15 -302 0 -278 1 -287 20 -294 11 -4 30
-6 41 -4 21 4 22 8 21 249 -1 134 2 244 5 244 7 0 50 -83 50 -97 0 -7 5 -13
10 -13 6 0 10 -5 10 -11 0 -6 9 -24 21 -40 11 -16 17 -29 14 -29 -3 0 3 -13
14 -28 11 -16 21 -35 23 -43 2 -8 6 -16 9 -19 3 -3 19 -30 35 -60 16 -30 33
-58 37 -61 5 -3 8 -9 8 -13 -1 -14 14 -42 32 -58 23 -20 92 -24 103 -7 4 7 7
140 7 297 1 312 0 313 -56 298 l-27 -6 0 -236 c0 -154 -3 -233 -10 -229 -5 3
-10 15 -10 25 0 10 -4 20 -8 22 -4 2 -27 41 -51 88 -25 47 -58 110 -74 140
-17 30 -43 80 -59 112 -16 31 -35 62 -43 68 -24 20 -90 24 -107 7z"/>
<path d="M1887 1583 c-6 -10 -1 -443 5 -463 19 -61 61 -109 117 -133 38 -15
161 -16 191 0 14 7 28 13 33 13 4 0 20 12 36 26 34 30 60 79 67 127 6 45 7
364 1 374 -3 5 -2 15 3 23 5 9 5 19 -2 27 -13 16 -64 17 -73 2 -4 -6 -7 -104
-7 -218 -1 -228 -6 -255 -61 -295 -21 -15 -43 -21 -82 -20 -66 0 -99 17 -127
63 -21 33 -22 49 -24 250 -1 119 -3 219 -3 224 -1 4 -16 7 -35 7 -19 0 -37 -3
-39 -7z"/>
<path d="M2431 1572 c-9 -15 -3 -51 8 -53 3 0 40 -2 81 -4 41 -1 80 -3 85 -4
6 -1 9 -94 8 -261 l-3 -261 26 -9 c15 -6 32 -6 42 -1 15 8 17 36 17 273 l0
264 78 -1 c90 -1 113 9 104 47 l-7 26 -215 -1 c-178 -1 -218 -3 -224 -15z"/>
<path d="M2977 1575 c-18 -17 -15 -567 3 -586 10 -11 45 -13 163 -12 83 2 151
4 153 6 2 1 5 14 8 29 5 33 -2 36 -85 36 -35 1 -88 1 -116 1 l-53 1 0 105 c0
58 3 105 8 106 4 1 50 2 102 4 52 1 98 3 101 4 12 2 8 62 -4 60 -7 -1 -56 -1
-109 0 l-98 1 0 94 0 95 113 -1 c61 0 118 1 125 1 9 1 12 12 10 34 l-3 32
-153 1 c-105 1 -157 -3 -165 -11z"/>
<path d="M3443 1578 c-5 -8 -9 -135 -9 -302 1 -276 2 -289 20 -296 11 -3 29
-5 41 -2 21 4 21 7 20 209 0 112 3 207 7 209 4 3 4 12 1 20 -3 9 -7 48 -8 88
-1 39 -3 74 -4 79 -2 12 -58 8 -68 -5z"/>
<path d="M2613 918 c-13 -27 -33 -87 -33 -99 0 -5 13 -9 29 -9 25 0 32 7 55
55 14 31 26 60 26 65 0 6 -15 10 -33 10 -25 0 -36 -6 -44 -22z"/>
</g>
</svg>
