<?xml version="1.0" standalone="no"?>
<!DOCTYPE svg PUBLIC "-//W3C//DTD SVG 20010904//EN"
 "http://www.w3.org/TR/2001/REC-SVG-20010904/DTD/svg10.dtd">
<svg version="1.0" xmlns="http://www.w3.org/2000/svg"
 width="1080.000000pt" height="1080.000000pt" viewBox="0 0 1080.000000 1080.000000"
 preserveAspectRatio="xMidYMid meet">
<metadata>
Created by potrace 1.14, written by Peter Selinger 2001-2017
</metadata>
<g transform="translate(0.000000,1080.000000) scale(0.100000,-0.100000)"
fill="#000000" stroke="none">
<path d="M2344 7259 c-8 -14 11 -33 25 -25 16 10 13 36 -3 36 -8 0 -18 -5 -22
-11z"/>
<path d="M2687 7168 l-37 -63 -1 50 -1 50 -16 -47 c-8 -27 -19 -48 -23 -48 -3
0 -10 15 -15 33 -8 31 -8 31 -12 -15 -3 -45 -22 -69 -22 -30 -1 16 -1 16 -11
0 -5 -9 -15 -15 -22 -12 -10 3 -12 -5 -9 -33 4 -34 3 -36 -12 -24 -14 12 -16
9 -17 -25 l-1 -39 -10 35 c-6 21 -12 29 -15 20 -13 -44 -13 -44 -29 -24 -14
18 -15 17 -9 -10 6 -27 5 -28 -11 -15 -16 13 -17 12 -10 -13 7 -29 -7 -39 -18
-13 -3 8 -10 15 -16 15 -6 0 -4 -12 5 -30 8 -16 15 -37 15 -47 0 -15 -2 -14
-16 5 -8 12 -23 22 -33 22 -9 0 -22 5 -29 12 -9 9 -12 9 -12 -1 0 -8 -12 -25
-27 -39 -23 -21 -37 -25 -73 -23 -42 2 -48 -1 -87 -43 -37 -40 -43 -44 -52
-28 -6 9 -11 12 -11 5 0 -7 -4 -13 -9 -13 -5 0 -6 12 -2 27 4 17 15 27 30 30
59 9 84 51 63 106 -16 41 0 59 43 51 36 -6 61 15 51 42 -4 11 1 24 14 36 16
15 18 23 10 38 -18 33 -60 18 -60 -21 0 -26 -19 -33 -39 -15 -22 20 -75 21
-91 2 -6 -8 -10 -30 -8 -48 2 -28 0 -32 -16 -30 -10 2 -33 -3 -50 -12 -40 -19
-147 -66 -153 -66 -2 0 7 18 19 39 20 35 26 39 53 34 55 -9 88 53 49 91 -38
39 -100 6 -91 -49 4 -27 0 -37 -25 -59 -36 -31 -38 -31 -38 -8 0 10 -14 -4
-33 -33 l-32 -49 -5 33 -5 33 -26 -24 c-14 -13 -30 -23 -36 -21 -5 2 -15 -9
-23 -24 -7 -16 -15 -23 -17 -15 -8 22 -23 13 -23 -15 l-1 -28 -14 30 -13 30
-1 -27 c-1 -20 -5 -26 -16 -22 -10 4 -15 0 -15 -11 0 -9 -5 -13 -11 -10 -6 4
-17 -1 -24 -11 -9 -12 -14 -14 -15 -6 0 7 -4 10 -10 7 -5 -3 -11 -27 -12 -53
l-1 -47 -6 45 c-4 31 -8 40 -13 28 -4 -11 -13 -15 -23 -12 -12 5 -15 -2 -16
-32 l-2 -39 -7 35 c-7 32 -8 33 -15 13 -8 -25 -21 -30 -28 -10 -3 6 -6 -1 -7
-18 l-1 -30 -11 25 -11 25 -4 -25 c-3 -14 -11 -30 -19 -36 -9 -7 -18 -39 -22
-75 l-7 -64 -14 48 c-13 47 -31 63 -31 30 0 -16 -2 -16 -11 -3 -7 11 -9 3 -4
-30 l6 -45 -21 35 -21 35 5 -42 c4 -45 -1 -52 -23 -30 -11 10 -13 9 -7 -6 3
-11 9 -31 12 -45 5 -26 3 -25 -28 11 l-34 38 6 -55 c3 -31 5 -56 3 -56 -1 0
-9 12 -17 28 l-15 27 -1 -34 c0 -33 -1 -34 -15 -15 -14 18 -14 17 -9 -16 5
-35 5 -35 -12 -12 -23 31 -36 28 -23 -5 18 -46 38 -115 32 -109 -3 3 -17 23
-30 43 l-24 38 7 -35 6 -35 -21 19 -21 19 15 -43 c21 -58 19 -60 -15 -20 l-30
35 30 -81 c34 -97 27 -119 -11 -37 l-28 58 6 -45 5 -45 -22 30 -22 30 6 -35
c3 -19 8 -45 12 -57 8 -27 -12 -32 -20 -5 -4 9 -15 28 -25 41 l-19 25 5 -27
c4 -18 1 -27 -7 -27 -9 0 -11 -11 -6 -40 7 -44 -11 -63 -38 -41 -12 10 -13 8
-9 -7 7 -28 -17 -39 -34 -17 -12 18 -13 18 -13 -1 0 -23 -35 -57 -100 -99
-120 -76 -305 -254 -387 -370 -85 -122 -153 -311 -153 -425 0 -55 29 -178 61
-259 53 -136 201 -317 374 -459 202 -166 590 -372 935 -498 245 -89 327 -117
445 -151 39 -12 95 -28 125 -37 216 -63 628 -157 855 -196 28 -5 118 -21 200
-35 83 -14 182 -30 220 -35 39 -5 156 -21 260 -35 467 -62 1299 -115 1815
-115 483 0 1333 51 1735 105 118 16 196 26 338 45 83 11 298 46 372 61 28 5
131 25 230 45 499 98 1001 244 1405 409 114 47 364 170 466 230 255 150 456
317 575 475 43 58 105 174 121 225 51 167 59 250 32 338 -8 29 -20 70 -26 92
-19 68 -90 196 -149 270 -172 215 -429 401 -803 581 -137 65 -155 77 -167 106
-11 30 -13 31 -16 10 -6 -32 -23 -17 -23 20 0 26 -2 29 -15 18 -13 -11 -15 -6
-16 36 l-1 49 -12 -53 c-8 -29 -16 -55 -19 -58 -13 -14 -27 10 -28 49 l-2 42
-10 -37 c-19 -68 -37 -36 -37 65 0 43 -4 57 -14 57 -8 0 -16 8 -18 18 -2 9
-13 -12 -25 -48 l-22 -65 -1 80 c-1 78 -2 79 -15 45 l-13 -35 -8 33 c-10 48
-24 21 -24 -48 0 -30 -4 -62 -10 -70 -17 -28 -22 16 -11 101 16 116 14 133
-10 84 l-18 -40 -1 44 c0 36 -2 42 -14 32 -12 -10 -15 -7 -18 16 -3 25 -5 23
-19 -22 l-16 -50 3 80 c3 68 2 76 -8 53 -16 -37 -28 -35 -29 5 0 17 -3 26 -6
20 -8 -21 -23 -15 -24 10 -1 16 -4 13 -12 -13 l-11 -35 -9 65 -9 64 -24 -44
-23 -45 -1 44 c0 36 -3 42 -12 33 -10 -10 -15 -4 -24 25 l-11 38 -10 -65 -10
-65 -2 68 c0 40 -5 66 -10 62 -6 -3 -14 3 -20 12 -8 14 -10 10 -11 -24 0 -57
-15 -54 -35 7 -9 28 -22 50 -28 50 -7 0 -20 12 -29 28 l-17 27 -2 -55 c-1 -30
-3 -44 -6 -30 -13 88 -15 93 -23 79 -8 -11 -12 -10 -25 6 -15 19 -15 18 -9
-20 4 -22 11 -50 15 -63 5 -13 9 -35 9 -50 -1 -37 -15 -10 -24 43 -11 61 -27
106 -36 100 -5 -3 -16 2 -25 11 -15 15 -15 14 -9 -12 4 -16 15 -51 25 -77 11
-26 19 -53 19 -60 -1 -23 -30 38 -51 108 -16 52 -23 65 -29 51 -6 -19 -7 -18
-22 3 -11 16 -17 19 -21 9 -5 -11 -7 -11 -15 1 -8 11 -10 11 -14 0 -3 -9 -11
0 -21 21 l-15 35 -2 -40 c-2 -40 -2 -40 -12 -11 -8 21 -13 25 -19 15 -8 -12
-11 -11 -19 1 -28 44 -30 46 -39 31 -7 -10 -12 -8 -25 10 -9 13 -16 17 -16 10
0 -11 -3 -11 -15 -1 -18 15 -21 -1 -4 -32 20 -37 -1 -33 -37 7 -27 30 -37 36
-43 26 -7 -11 -13 -11 -32 3 -35 24 -43 19 -20 -13 12 -16 21 -31 21 -34 0 -2
-26 2 -57 9 -101 24 -112 14 -21 -18 66 -23 82 -38 43 -38 -17 0 -37 -5 -45
-10 -11 -7 -6 -10 20 -11 19 0 44 -4 55 -8 19 -8 18 -9 -7 -21 -42 -20 -33
-30 20 -24 44 6 46 5 27 -9 -18 -15 -18 -16 -2 -17 20 0 23 -16 5 -24 -7 -3
10 -4 37 -1 28 2 44 2 38 -1 -7 -3 -13 -9 -13 -13 0 -5 23 -2 52 5 74 19 104
15 41 -5 -66 -21 -89 -41 -49 -41 24 0 27 -2 16 -15 -15 -17 -7 -19 21 -5 21
12 26 1 7 -18 -15 -15 -3 -16 23 -2 25 14 26 -6 2 -33 -20 -22 -9 -18 39 15
35 24 56 24 34 -1 -10 -10 -16 -25 -15 -33 2 -7 -2 -22 -8 -34 -12 -20 -11
-21 28 -14 31 6 37 5 29 -5 -14 -17 7 -32 23 -16 6 6 20 11 31 11 18 0 16 -4
-14 -31 l-33 -31 -131 31 c-72 17 -153 35 -181 41 -27 5 -93 18 -145 30 -52
11 -133 27 -180 35 -47 7 -150 25 -230 39 -80 13 -168 28 -197 31 -49 6 -53 9
-58 38 -2 18 -10 59 -16 92 -6 33 -10 95 -9 138 l1 77 -42 0 c-25 0 -55 -8
-76 -21 -34 -21 -42 -22 -218 -15 -198 7 -195 8 -195 -48 0 -21 -38 -177 -45
-184 -2 -2 -45 1 -97 7 -51 6 -155 15 -231 20 -77 5 -141 11 -143 14 -2 2 3
26 11 53 26 91 26 101 -3 113 -54 22 -181 51 -267 60 -150 17 -296 -15 -409
-90 -32 -21 -69 -39 -82 -39 -16 0 -28 -8 -35 -24 -11 -23 -12 -23 -223 -28
-116 -3 -214 -3 -218 -1 -5 2 -8 44 -8 94 l0 89 -40 0 c-22 0 -58 -10 -80 -21
-38 -20 -53 -21 -223 -18 l-182 4 -3 -35 c-1 -19 -9 -63 -18 -97 l-16 -61 -86
-7 c-48 -3 -136 -10 -197 -15 l-110 -9 -29 37 c-16 20 -66 74 -111 118 -93 93
-117 104 -238 104 -68 0 -90 -5 -158 -34 -140 -61 -240 -144 -316 -264 -44
-69 -44 -69 -108 -77 -27 -4 -80 -13 -117 -22 -37 -8 -82 -13 -100 -11 l-32 3
34 32 c35 33 32 45 -5 20 -11 -8 -28 -17 -38 -20 -15 -6 -17 -3 -12 13 5 15 3
18 -9 14 -9 -3 -16 -10 -16 -15 0 -5 -7 -9 -15 -9 -8 0 -15 5 -15 11 0 5 -12
-3 -26 -18 -23 -25 -25 -26 -21 -6 4 19 2 21 -19 11 -13 -6 -24 -14 -24 -18 0
-10 -61 -70 -71 -70 -5 0 -9 10 -10 23 0 21 -1 21 -9 2 -5 -11 -9 -14 -9 -7
-2 22 -20 13 -27 -13 -4 -14 -9 -24 -11 -21 -3 3 -20 -6 -38 -19 -40 -31 -53
-31 -57 -2 -2 15 -9 21 -22 19 -15 -3 -17 1 -12 22 5 19 2 26 -8 26 -8 0 -16
-12 -19 -27 l-4 -28 -2 27 c-1 34 40 57 84 47 17 -4 22 -7 12 -8 -10 0 -17 -7
-14 -13 2 -7 10 -12 16 -10 6 1 10 -1 9 -5 -2 -5 2 -10 7 -13 6 -3 11 10 13
28 2 22 9 32 20 33 14 0 13 2 -3 8 -19 7 -18 8 5 21 23 13 24 14 5 21 -16 6
-17 8 -3 8 9 1 21 7 25 15 4 7 15 15 23 18 11 4 9 8 -9 15 -24 10 -24 10 -3
15 15 4 20 11 16 21 -3 10 2 18 17 22 17 6 19 9 8 16 -11 7 -9 10 9 15 13 4
21 12 18 19 -2 7 1 18 7 25 10 10 5 11 -23 6 l-35 -6 27 20 c14 11 37 29 50
40 21 18 21 19 4 20 -18 0 -18 2 4 25 28 30 21 44 -12 21 -29 -21 -42 -20 -33
2 54 127 50 147 -8 50z m1013 -68 c-28 -22 -21 -25 28 -11 30 9 34 8 42 -15
11 -29 30 -32 30 -4 0 35 43 43 87 18 46 -26 167 -147 158 -156 -4 -4 -17 4
-29 18 -31 35 -94 90 -75 65 15 -18 27 -33 88 -104 12 -13 21 -27 21 -30 0 -3
-17 -22 -38 -43 l-38 -36 -51 49 c-28 27 -47 49 -42 49 13 0 11 64 -3 78 -31
31 -98 6 -98 -36 0 -35 16 -52 50 -52 18 0 36 -12 60 -42 67 -82 65 -78 40
-78 -30 0 -82 53 -74 77 5 14 4 15 -4 4 -9 -13 -13 -13 -29 -1 -15 12 -15 11
2 -10 11 -14 23 -27 26 -30 11 -9 31 -52 26 -57 -3 -2 -25 16 -50 41 -37 36
-98 77 -159 104 -5 2 -8 -5 -8 -16 0 -11 7 -22 15 -26 24 -9 18 -21 -24 -43
-45 -24 -57 -20 -36 11 17 23 19 64 6 85 -11 18 -33 4 -29 -18 2 -9 -7 -30
-20 -45 -12 -16 -22 -37 -22 -47 0 -10 -4 -20 -9 -23 -5 -3 -19 -38 -31 -78
-26 -87 -28 -184 -5 -265 17 -59 70 -142 91 -143 7 0 26 -16 43 -35 17 -19 35
-35 41 -35 6 0 13 -7 16 -15 4 -8 12 -15 20 -15 16 0 19 26 4 35 -24 15 -8 43
35 65 25 13 50 29 56 37 16 18 43 16 69 -5 l23 -19 -39 -38 -39 -38 37 27 c47
33 53 33 31 -1 -15 -25 -13 -25 20 7 37 34 38 34 43 12 4 -12 10 -19 15 -16 5
3 12 -2 15 -10 3 -9 14 -16 23 -16 9 0 -8 -17 -38 -38 -36 -25 -48 -38 -37
-40 9 -2 37 13 61 32 25 21 46 32 50 26 3 -5 3 -14 0 -20 -3 -5 1 -10 9 -10
28 0 17 -15 -44 -60 -34 -25 -71 -53 -83 -63 -45 -38 -82 -50 -157 -52 -83 -3
-173 18 -132 31 12 3 22 13 22 20 0 8 9 14 20 14 28 0 72 51 58 67 -8 10 -14
8 -27 -9 -14 -17 -21 -19 -39 -9 -11 6 -30 11 -42 11 -17 0 -19 -4 -14 -25 5
-20 3 -24 -9 -20 -11 5 -13 0 -10 -19 5 -22 2 -26 -19 -26 -13 0 -34 9 -47 21
-25 23 -41 19 -21 -6 7 -9 10 -18 6 -22 -12 -12 -58 22 -76 57 -11 19 -19 31
-20 27 0 -5 5 -17 10 -28 19 -35 -18 -22 -42 16 -26 40 -38 45 -31 13 l5 -23
-20 23 c-68 76 -107 189 -127 362 -16 133 69 362 170 464 19 19 45 10 45 -14
0 -13 -9 -20 -27 -22 -23 -2 -29 -8 -31 -35 -3 -27 1 -33 21 -38 13 -4 48 0
78 8 l54 14 -32 17 c-18 9 -33 23 -33 31 0 17 29 34 50 28 9 -2 7 1 -3 7 -14
9 -22 9 -30 1 -16 -16 -27 -13 -27 7 0 10 -5 23 -10 28 -12 12 41 64 64 64 8
0 16 3 18 8 10 24 124 69 178 71 l25 1 -25 -20z m1344 -112 c7 -143 10 -176
19 -184 3 -3 3 -12 0 -20 -3 -8 0 -14 7 -14 7 0 10 -7 6 -15 -3 -8 -1 -15 5
-15 6 0 8 -9 4 -20 -4 -12 -2 -20 5 -20 7 0 10 -7 6 -15 -3 -8 -1 -15 5 -15 6
0 9 -7 6 -15 -4 -8 -2 -17 3 -20 24 -15 63 -104 66 -152 3 -57 14 -85 50 -123
19 -20 75 -132 76 -150 0 -3 4 -15 9 -28 14 -36 12 -38 -46 -59 l-55 -21 -20
33 c-11 18 -20 38 -20 44 0 7 -12 23 -27 37 -23 21 -25 28 -15 44 14 22 14 93
1 130 -6 19 -8 12 -5 -28 2 -40 0 -52 -9 -48 -7 2 -44 -6 -82 -20 -37 -14 -58
-23 -45 -20 15 3 31 -3 44 -16 14 -14 23 -17 31 -9 21 21 36 11 43 -26 4 -21
15 -61 25 -90 l17 -51 -50 -22 c-27 -12 -56 -19 -62 -17 -16 6 -69 154 -62
173 3 8 2 13 -2 13 -4 -1 -23 2 -42 6 -27 7 -30 10 -15 15 10 4 14 9 9 12 -8
5 -135 -26 -218 -52 -35 -11 -44 -6 -26 15 7 8 9 15 4 15 -4 0 3 11 15 24 l22
24 -30 4 c-16 2 -28 0 -25 -4 3 -5 3 -21 -1 -36 -6 -24 -8 -25 -14 -8 -6 17
-9 16 -18 -10 -6 -16 -23 -61 -38 -99 -35 -93 -56 -120 -81 -107 -10 5 -32 15
-48 21 -29 12 -29 12 -22 76 4 36 4 65 2 65 -3 0 -19 -20 -36 -45 -22 -33 -38
-45 -55 -45 -14 0 -25 5 -25 11 0 5 -4 8 -9 4 -5 -3 -17 5 -25 17 -9 12 -16
18 -16 13 0 -5 -5 -4 -11 2 -8 8 1 34 31 94 24 46 46 95 50 109 6 16 9 19 9 8
1 -10 4 -18 9 -18 7 0 43 57 48 75 8 35 65 238 77 275 8 25 25 81 36 125 54
201 82 275 102 275 13 0 19 -7 19 -22 0 -26 -18 -145 -26 -170 -3 -10 0 -18 6
-18 17 0 60 100 60 140 0 44 12 63 33 54 13 -4 14 -10 7 -24 -18 -34 -12 -60
18 -72 15 -7 35 -18 45 -27 22 -19 26 -13 33 46 6 45 4 50 -17 60 -21 9 -16
11 39 14 50 3 62 1 62 -11 -1 -29 -28 -146 -48 -202 -16 -46 -18 -63 -10 -86
13 -35 3 -71 -14 -54 -8 8 -8 15 1 26 7 8 10 20 6 27 -5 6 -15 -11 -26 -42
-23 -63 -23 -70 -4 -45 15 19 15 19 15 -1 0 -12 5 -25 10 -28 6 -3 10 3 10 14
0 11 6 26 13 33 6 7 12 18 13 23 2 26 39 148 66 220 17 44 32 94 35 110 7 49
11 55 36 55 24 0 25 -1 31 -122z m1134 98 c57 -14 106 -27 108 -29 3 -2 2 -23
-2 -46 l-7 -41 -41 5 -41 6 38 -17 c35 -15 48 -36 28 -48 -5 -3 -23 1 -40 10
-17 8 -39 14 -49 12 -12 -3 -2 -11 30 -27 28 -14 45 -28 42 -35 -4 -10 -19 -8
-62 10 -31 13 -75 23 -97 23 -34 0 -28 -3 39 -20 44 -11 85 -24 93 -30 12 -10
19 -49 9 -49 -3 0 -60 16 -128 36 -124 36 -208 42 -262 19 -16 -7 -18 -5 -14
13 4 12 3 22 -1 22 -4 0 -12 12 -18 28 -10 24 -11 19 -12 -39 -1 -52 4 -76 26
-119 31 -62 105 -140 134 -140 21 0 26 -34 9 -60 -8 -13 -19 -10 -71 18 l-61
33 28 -31 c16 -16 36 -30 44 -31 9 0 11 -2 3 -5 -7 -3 -21 0 -32 6 -30 15 -26
-4 4 -24 34 -22 31 -39 -8 -61 -32 -17 -35 -17 -73 1 -70 32 -123 74 -162 127
-46 62 -87 155 -96 217 -7 45 -7 45 9 18 9 -16 17 -28 19 -28 2 0 2 30 -1 67
-5 80 2 117 22 110 7 -3 16 1 19 9 8 20 35 18 43 -3 6 -15 8 -14 13 6 3 13 12
28 20 33 17 9 136 62 160 71 8 3 65 6 125 6 83 0 136 -5 213 -23z m1132 -23
c0 -27 7 -93 16 -148 8 -55 16 -110 16 -122 0 -13 5 -23 10 -23 6 0 8 -7 4
-15 -3 -8 -1 -15 5 -15 6 0 8 -4 4 -10 -6 -10 -7 -8 54 -130 26 -51 40 -92 36
-101 -10 -27 13 -96 44 -132 31 -35 84 -145 95 -194 7 -29 5 -31 -43 -47 -27
-9 -55 -16 -61 -16 -6 0 -20 21 -32 48 -11 26 -30 55 -42 64 -18 15 -19 20 -8
37 14 23 15 103 1 141 -6 18 -8 10 -5 -32 2 -47 0 -57 -13 -55 -19 2 -131 -32
-131 -40 0 -3 7 -2 16 1 8 3 25 -3 36 -14 15 -14 25 -17 32 -10 16 16 36 12
36 -8 0 -10 9 -46 21 -80 12 -34 19 -68 16 -75 -3 -8 -28 -23 -56 -35 l-51
-21 -17 52 c-34 98 -66 152 -93 156 -23 3 -24 4 -5 12 19 7 18 8 -3 8 -21 1
-130 -25 -206 -49 -16 -5 -31 -8 -33 -6 -5 5 29 70 41 78 6 4 -1 8 -15 8 -22
0 -28 -6 -33 -32 -5 -25 -9 -29 -16 -19 -10 17 -9 18 -55 -104 -35 -93 -56
-120 -81 -107 -10 5 -32 15 -48 21 -28 12 -28 12 -21 76 3 36 4 65 1 65 -3 0
-19 -20 -36 -45 -22 -33 -38 -45 -55 -45 -14 0 -25 4 -25 10 0 5 -3 9 -7 8 -5
-1 -20 6 -35 15 -22 16 -25 22 -18 46 4 16 16 40 25 55 9 14 28 52 41 83 13
32 24 50 24 41 0 -10 5 -18 10 -18 6 0 14 8 17 18 4 9 10 19 13 22 4 3 23 66
44 140 20 74 41 149 47 165 6 17 22 71 35 120 66 236 84 285 104 285 14 0 20
-7 20 -22 0 -26 -15 -119 -25 -160 -4 -16 -3 -28 2 -28 17 0 54 79 63 136 11
65 12 67 33 58 13 -4 14 -10 7 -24 -19 -36 -12 -60 23 -75 19 -8 40 -22 48
-31 13 -15 15 -13 21 22 12 68 9 84 -14 94 -18 8 -10 9 35 7 31 -1 57 1 57 6
0 4 4 7 8 7 14 0 -47 -235 -85 -329 -3 -8 0 -12 8 -9 8 3 13 12 13 21 -1 9 2
14 7 11 10 -6 12 -48 2 -57 -3 -4 -12 -2 -19 4 -11 9 -16 5 -24 -16 -6 -15 -8
-30 -6 -33 3 -3 9 3 12 13 6 15 9 13 20 -11 10 -23 13 -25 13 -9 1 11 8 33 17
50 8 16 19 46 23 65 4 19 12 34 18 33 5 -1 8 9 5 22 -6 31 17 97 30 89 7 -4 8
-2 4 5 -7 11 11 77 26 96 4 5 8 19 8 31 0 36 11 54 31 54 16 0 19 -8 19 -47z
m-5323 -149 c-2 -25 0 -44 5 -44 5 0 2 -7 -6 -16 -9 -8 -16 -22 -16 -30 0 -8
-4 -14 -10 -14 -5 0 -10 7 -10 16 0 13 -3 14 -15 4 -26 -22 -34 0 -8 26 23 23
24 26 9 49 -15 22 -14 25 12 43 36 27 45 18 39 -34z m2896 -94 c-3 -11 -12
-20 -21 -20 -13 0 -13 2 1 18 10 10 14 22 10 27 -5 4 -3 5 4 2 6 -4 9 -16 6
-27z m2287 11 c0 -13 -31 -43 -38 -37 -3 3 3 15 13 26 20 22 25 24 25 11z
m1405 -80 c-13 -11 -81 -34 -71 -24 4 5 22 13 39 20 40 15 43 15 32 4z m-6153
-53 c2 -14 -4 -31 -16 -42 -17 -17 -19 -17 -13 -2 4 10 7 31 7 47 0 34 15 31
22 -3z m-532 7 c0 -8 -4 -15 -10 -15 -5 0 -10 7 -10 15 0 8 5 15 10 15 6 0 10
-7 10 -15z m6814 -6 c-31 -12 -40 -9 -20 6 10 8 24 11 29 8 6 -4 2 -10 -9 -14z
m-6844 4 c0 -5 -4 -15 -10 -23 -11 -18 -25 -7 -17 15 6 15 27 21 27 8z m398
-15 c14 -14 16 -124 2 -133 -5 -3 -10 1 -10 10 0 10 -5 13 -11 9 -9 -5 -10 1
-5 21 5 21 2 33 -15 51 -30 32 -37 30 -37 -8 0 -18 -11 -58 -24 -88 -14 -30
-23 -62 -21 -70 4 -12 3 -12 -5 -1 -7 9 -12 10 -16 2 -9 -14 -27 -14 -23 0 2
11 -15 23 -45 33 -10 3 -18 14 -18 25 0 11 -10 27 -22 35 -34 24 -10 43 30 25
24 -10 30 -19 30 -40 -1 -27 21 -59 41 -59 28 0 64 113 39 123 -9 4 -7 6 4 6
12 1 15 9 14 31 -2 24 1 29 13 24 27 -12 56 -10 54 4 -4 15 9 16 25 0z m53
-12 c12 7 11 -58 -2 -76 -8 -11 -9 -7 -4 17 4 18 2 34 -4 38 -6 3 -11 14 -10
23 0 11 2 12 6 4 2 -6 9 -10 14 -6z m-551 -16 c0 -5 -4 -10 -10 -10 -5 0 -10
5 -10 10 0 6 5 10 10 10 6 0 10 -4 10 -10z m7016 -9 c-3 -5 -22 -12 -43 -16
-20 -4 -66 -18 -101 -32 -41 -17 -67 -22 -73 -16 -15 15 51 52 116 66 37 9
106 7 101 -2z m-7369 -38 c-3 -10 -5 -4 -5 12 0 17 2 24 5 18 2 -7 2 -21 0
-30z m714 -30 c-12 -20 -14 -14 -5 12 4 9 9 14 11 11 3 -2 0 -13 -6 -23z
m3982 4 c-4 -6 -1 -7 6 -3 17 11 106 -29 164 -73 61 -46 85 -85 97 -157 8 -50
7 -63 -14 -108 -15 -33 -20 -53 -13 -58 16 -10 -13 -68 -40 -79 -14 -5 -23
-17 -23 -29 0 -15 -6 -20 -17 -19 -10 2 -27 -2 -38 -8 -52 -28 -146 -43 -280
-43 -145 0 -183 7 -355 61 -110 35 -123 44 -96 65 11 8 15 14 10 14 -6 0 -9
13 -6 30 2 17 9 30 14 30 5 0 7 4 4 8 -3 5 9 7 27 5 28 -4 30 -3 13 8 -15 9
-16 13 -5 20 10 6 11 9 2 9 -14 0 -17 28 -5 47 6 10 13 10 32 0 118 -60 242
-92 360 -92 83 0 86 1 140 39 30 22 67 54 82 71 27 32 27 33 7 38 -12 3 -18 3
-15 0 3 -4 1 -12 -5 -20 -9 -11 -15 -11 -27 -1 -13 11 -14 9 -8 -12 6 -19 -6
-11 -46 33 -29 32 -60 57 -69 57 -8 0 -33 9 -55 20 l-39 19 35 -5 35 -5 -30
14 c-26 13 -27 16 -12 22 14 6 15 10 6 21 -16 20 -5 28 19 15 24 -13 42 -14
41 -3 -2 14 14 52 22 52 5 0 6 7 3 15 -5 11 4 14 40 13 28 0 43 -4 39 -11z
m2537 -7 c0 -5 -8 -10 -17 -10 -15 0 -16 2 -3 10 19 12 20 12 20 0z m337 -37
c-3 -10 -5 -2 -5 17 0 19 2 27 5 18 2 -10 2 -26 0 -35z m-264 26 c-6 -6 -10
-25 -8 -43 1 -17 0 -22 -2 -11 -3 11 -12 27 -20 37 -13 14 -13 17 4 21 32 8
37 7 26 -4z m-323 -42 c0 -5 -4 -5 -10 -2 -5 3 -10 14 -10 23 0 15 2 15 10 2
5 -8 10 -19 10 -23z m525 17 c-5 -2 -37 -8 -70 -13 -62 -9 -103 -1 -50 10 32
7 137 10 120 3z m105 -30 c0 -8 -4 -12 -10 -9 -5 3 -10 13 -10 21 0 8 5 12 10
9 6 -3 10 -13 10 -21z m-7112 -69 c-3 -23 -58 -36 -58 -13 -1 9 -4 9 -13 -3
-19 -24 -44 -30 -51 -12 -9 22 14 49 25 31 7 -10 9 -10 9 0 0 8 8 10 25 6 14
-3 25 -2 25 3 0 5 9 9 20 9 15 0 20 -6 18 -21z m139 3 c-3 -8 -6 -5 -6 6 -1
11 2 17 5 13 3 -3 4 -12 1 -19z m6674 -5 c13 -16 12 -17 -3 -4 -10 7 -18 15
-18 17 0 8 8 3 21 -13z m432 2 c4 -8 2 -17 -3 -20 -6 -4 -10 3 -10 14 0 25 6
27 13 6z m-7397 -73 c-13 -13 -14 -10 -6 24 5 21 10 44 11 49 1 6 4 -5 6 -24
3 -21 -1 -39 -11 -49z m804 68 c8 -5 11 -12 8 -15 -4 -4 -17 0 -30 9 -24 17
-5 23 22 6z m6753 -71 c-4 -4 -6 13 -3 39 l5 47 3 -39 c2 -21 0 -42 -5 -47z
m-7893 51 c0 -5 -4 -10 -10 -10 -5 0 -10 5 -10 10 0 6 5 10 10 10 6 0 10 -4
10 -10z m7740 -49 c0 -5 -9 -7 -20 -4 -11 3 -20 12 -20 20 0 11 4 11 20 3 11
-6 20 -15 20 -19z m-1070 -4 c0 -2 -10 -12 -21 -23 -22 -19 -22 -19 -8 4 12
19 29 30 29 19z m-5726 -16 c11 -4 15 -10 10 -13 -5 -3 -22 1 -39 8 -22 10
-25 13 -10 13 11 0 29 -4 39 -8z m5820 -23 c-10 -20 -19 -28 -22 -20 -2 7 4
22 14 33 25 27 27 24 8 -13z m-40 -2 c-6 -16 -24 -23 -24 -8 0 10 22 33 27 28
2 -2 1 -11 -3 -20z m156 7 c-1 -10 -12 -31 -26 -48 l-25 -30 1 30 c3 45 2 47
-20 35 -14 -8 -20 -8 -20 0 0 13 36 28 68 29 15 1 22 -5 22 -16z m-6019 -17
c15 -13 25 -27 22 -30 -11 -11 -19 -6 -41 24 -27 36 -20 38 19 6z m-822 -33
c0 -25 -1 -26 -9 -8 -12 27 -12 35 0 35 6 0 10 -12 9 -27z m672 -5 c50 -28 56
-53 7 -27 -17 9 -19 8 -14 -9 6 -16 3 -19 -18 -15 -24 5 -45 33 -25 33 6 0 9
9 6 20 -6 25 -4 25 44 -2z m64 1 c11 -17 -1 -21 -15 -4 -8 9 -8 15 -2 15 6 0
14 -5 17 -11z m6113 -13 c-10 -24 -36 -42 -45 -32 -4 3 47 56 54 56 1 0 -2
-11 -9 -24z m-6238 -49 c0 -13 -29 12 -42 37 -10 19 -8 18 16 -3 14 -14 26
-29 26 -34z m6517 39 c-3 -8 -1 -17 6 -19 9 -3 8 -8 -2 -21 -15 -17 -71 -51
-71 -42 0 3 14 25 31 50 30 45 46 60 36 32z m-6570 -21 c15 -13 25 -27 22 -30
-7 -7 -59 33 -59 46 0 14 9 11 37 -16z m6389 8 c-9 -10 -24 -27 -32 -38 -15
-19 -15 -19 -8 4 8 31 25 50 43 51 11 0 11 -4 -3 -17z m-6406 -33 c0 -5 -12
-8 -27 -7 -26 2 -28 -1 -27 -34 0 -19 4 -41 9 -48 10 -18 -33 -5 -57 17 -28
24 -21 34 12 17 39 -20 38 -3 -1 28 -37 29 -34 54 8 59 30 4 83 -16 83 -32z
m6510 21 c-11 -21 -30 -37 -30 -25 0 8 30 44 37 44 2 0 -1 -9 -7 -19z m-7052
-11 c-7 -10 -14 -18 -15 -16 -6 6 9 36 18 36 5 0 4 -9 -3 -20z m7257 8 c-11
-6 -32 -24 -47 -40 -16 -16 -28 -25 -28 -20 0 14 68 72 83 72 7 0 3 -6 -8 -12z
m15 -41 c0 -2 -12 -14 -26 -28 l-27 -24 18 28 c14 22 35 36 35 24z m120 -40
c0 -2 -10 -12 -21 -23 -22 -19 -22 -19 -8 4 12 19 29 30 29 19z m-7000 -63
c33 -35 16 -42 -18 -8 -15 16 -36 34 -47 41 -17 10 -15 10 11 2 17 -6 42 -21
54 -35z m-178 -34 c22 -23 38 -43 35 -46 -3 -3 -27 6 -54 20 -26 14 -42 25
-35 26 9 0 11 7 7 20 -9 29 1 25 47 -20z m-605 3 c-15 -16 -17 -16 -17 -1 0 9
6 18 13 21 20 7 22 -2 4 -20z m674 1 l24 -27 -32 17 c-36 18 -51 36 -30 36 7
0 24 -12 38 -26z m-604 -36 c-3 -8 -6 -5 -6 6 -1 11 2 17 5 13 3 -3 4 -12 1
-19z m430 -18 c28 -16 55 -35 58 -41 6 -9 -33 9 -85 40 -8 5 -26 14 -40 19
-21 9 -22 11 -5 11 11 1 43 -13 72 -29z m7508 11 c10 -18 -17 -23 -33 -7 -15
15 -15 16 5 16 12 0 24 -4 28 -9z m-7536 -45 c15 -8 34 -23 42 -33 13 -16 12
-16 -16 1 -73 46 -87 63 -26 32z m-89 -79 c14 -11 21 -18 15 -15 -57 25 -85
39 -85 44 0 10 44 -8 70 -29z m-82 6 c-10 -2 -26 -2 -35 0 -10 3 -2 5 17 5 19
0 27 -2 18 -5z m-83 -123 l30 -8 -30 0 c-16 0 -39 3 -50 8 l-20 9 20 -1 c11 0
34 -4 50 -8z m-12 -37 c-13 -2 -23 -9 -23 -14 0 -5 -9 -9 -20 -9 -20 0 -26 11
-13 23 3 4 22 6 42 6 23 -1 28 -3 14 -6z m3377 -392 c0 -5 -9 -13 -20 -16 -28
-9 -26 -29 3 -21 66 18 65 19 80 -11 l15 -28 12 27 c19 40 55 42 117 7 49 -28
153 -132 153 -154 0 -7 -3 -7 -8 0 -19 25 -92 88 -92 79 0 -5 21 -32 46 -59
68 -75 69 -83 21 -132 -23 -24 -43 -39 -46 -34 -4 4 -30 29 -59 54 -29 26 -48
47 -42 47 7 0 10 18 8 47 -3 42 -6 49 -31 57 -42 15 -81 -10 -85 -52 -4 -41
12 -62 48 -62 38 0 60 -9 60 -25 0 -7 18 -32 41 -55 29 -29 38 -45 30 -53 -13
-13 -53 12 -99 61 -46 49 -49 35 -6 -22 21 -25 35 -49 32 -52 -3 -2 -31 20
-63 50 -31 30 -76 63 -101 72 -24 9 -44 21 -44 25 0 5 -7 9 -15 9 -22 0 -18
-26 6 -49 l21 -19 -32 -17 c-17 -9 -38 -14 -46 -11 -7 3 -13 0 -11 -6 1 -6 -4
-13 -10 -15 -19 -7 -16 13 4 33 10 9 18 24 19 32 2 8 9 19 16 23 10 7 9 9 -3
9 -10 0 -20 11 -23 26 -9 35 -32 25 -28 -13 2 -23 -3 -34 -23 -47 -14 -9 -25
-23 -25 -32 0 -8 -12 -41 -26 -71 -14 -31 -32 -84 -41 -117 -25 -98 -6 -252
39 -318 10 -14 18 -30 18 -35 0 -10 37 -43 48 -43 4 0 35 -27 69 -60 34 -33
69 -60 77 -60 20 0 20 5 0 35 -15 23 -15 27 0 49 8 14 26 28 38 32 13 4 39 18
60 31 l37 25 35 -22 35 -21 -42 -40 c-44 -40 -44 -54 0 -19 30 23 51 27 33 5
-18 -21 -3 -19 27 5 30 24 43 25 43 6 0 -8 14 -20 30 -28 17 -7 30 -16 30 -19
0 -3 -25 -23 -55 -44 -30 -20 -55 -39 -55 -41 0 -16 44 2 78 32 27 23 48 34
58 30 13 -5 14 -9 5 -20 -10 -12 -8 -13 8 -9 28 7 28 -23 0 -38 -12 -6 -35
-23 -51 -37 -45 -41 -140 -102 -168 -108 -14 -3 -35 -10 -48 -15 -34 -13 -80
-10 -142 10 -42 14 -51 20 -37 26 9 4 17 13 17 20 0 7 12 15 28 19 15 3 37 19
50 36 23 29 23 29 2 40 -16 8 -20 8 -20 -4 0 -18 -30 -30 -44 -16 -5 5 -24 10
-42 10 -28 0 -31 -3 -26 -25 3 -20 1 -24 -12 -19 -14 5 -15 2 -7 -19 17 -45
-20 -51 -67 -12 -36 30 -42 31 -35 5 3 -11 9 -20 14 -20 5 0 9 -7 9 -15 0 -24
-17 -18 -62 23 -26 23 -43 32 -45 25 -8 -22 -22 -14 -50 28 -23 34 -28 38 -33
23 -6 -15 -12 -11 -39 26 -45 61 -65 103 -90 185 -31 99 -31 321 0 421 38 126
141 294 178 294 33 0 30 -34 -4 -45 -54 -18 -41 -95 17 -95 12 0 42 8 65 18
43 17 56 32 29 32 -23 0 -48 41 -34 57 12 15 48 18 48 3 0 -5 5 -10 10 -10 6
0 10 5 10 10 0 15 -43 30 -54 19 -14 -13 -39 -11 -31 2 4 5 0 18 -9 28 -15 16
-14 19 12 43 65 61 292 153 292 119z m-2403 -56 c2 -28 8 -93 15 -145 6 -52
12 -104 13 -115 2 -11 6 -28 10 -37 4 -10 8 -29 9 -43 0 -14 4 -25 7 -25 4 0
9 -14 13 -31 3 -17 25 -70 49 -117 32 -64 46 -104 51 -152 5 -52 12 -71 36
-100 17 -19 37 -48 45 -65 35 -74 63 -145 69 -173 6 -25 4 -30 -16 -35 -13 -3
-41 -12 -63 -20 l-40 -15 -33 64 c-18 35 -39 64 -47 64 -17 0 -21 45 -5 55 12
7 12 75 0 130 -8 38 -8 37 -7 -20 1 -58 0 -60 -24 -57 -13 1 -51 -9 -84 -22
-46 -19 -54 -25 -33 -26 14 0 28 -5 30 -12 2 -6 20 -11 39 -10 l36 1 30 -96
31 -97 -38 -17 c-20 -9 -50 -20 -66 -23 -27 -6 -31 -3 -47 34 -9 22 -17 46
-17 54 0 27 -41 110 -66 133 -14 13 -33 23 -42 23 -16 0 -209 -52 -246 -66
-17 -6 -17 -5 -5 17 7 13 13 28 14 32 0 5 9 15 19 23 24 17 17 26 -26 30 -18
1 -28 0 -22 -2 6 -3 9 -16 6 -29 -5 -28 -22 -44 -23 -23 0 17 -48 -83 -49
-103 0 -17 -54 -127 -70 -143 -5 -5 -19 -3 -35 8 -14 9 -30 14 -35 11 -5 -3
-18 3 -28 13 -17 17 -19 26 -10 72 15 84 7 91 -35 32 -44 -60 -69 -66 -111
-27 -15 14 -32 23 -37 20 -27 -17 -14 34 34 134 38 79 56 108 61 96 5 -14 9
-15 22 -5 8 7 13 19 10 27 -3 7 -2 13 3 13 10 0 44 104 71 219 10 46 28 107
39 135 11 28 44 138 73 243 50 182 54 193 77 193 23 0 24 -2 18 -52 -3 -29 -9
-82 -12 -118 -6 -64 -6 -65 12 -41 28 37 52 102 53 141 0 44 12 62 33 54 13
-4 14 -10 5 -29 -16 -36 -2 -74 30 -81 15 -4 35 -14 45 -22 20 -18 19 -18 35
29 19 56 15 76 -15 88 -24 9 -17 10 40 8 37 -1 67 2 67 7 0 5 2 7 5 4 8 -7
-25 -150 -36 -162 -5 -6 -9 -19 -9 -30 0 -11 -18 -74 -40 -138 -23 -65 -38
-123 -35 -127 3 -5 -1 -15 -8 -23 -13 -13 -30 -48 -23 -48 2 0 11 12 21 26 15
24 22 41 24 67 2 17 21 5 21 -13 0 -27 16 -25 23 3 7 29 46 147 57 172 5 11
11 34 14 50 7 45 50 163 64 177 7 7 12 26 12 43 0 36 7 47 30 43 11 -2 16 -17
17 -53z m6818 45 c19 0 41 -8 51 -17 13 -13 19 -14 22 -5 7 21 32 13 32 -10 0
-20 1 -20 18 -5 10 10 22 17 25 17 11 0 8 -98 -14 -425 -16 -246 -19 -358 -14
-542 5 -158 4 -233 -3 -233 -6 0 -12 12 -14 28 -4 36 -32 36 -36 0 -4 -37 -24
-50 -69 -46 l-38 3 -5 122 c-7 158 -22 177 -38 44 -6 -54 -16 -110 -21 -125
-13 -33 -42 -36 -34 -3 l6 22 -26 -23 c-23 -22 -26 -22 -35 -7 -6 12 -11 14
-16 6 -19 -29 -27 -7 -23 57 3 37 10 135 16 217 6 83 13 165 16 184 11 57 7
511 -4 586 -13 89 -14 118 -1 110 6 -3 10 1 10 9 0 28 17 17 28 -16 l10 -33 1
33 c1 17 5 32 11 32 11 0 23 -44 41 -148 7 -40 16 -75 21 -78 4 -3 8 33 8 79
0 120 9 179 27 173 8 -4 30 -6 48 -6z m-1517 -12 c-3 -7 -23 -16 -46 -19 -60
-8 -64 -19 -7 -19 38 0 46 -3 37 -12 -7 -7 -58 -14 -132 -16 -66 -3 -120 -8
-120 -13 0 -11 109 -11 203 0 59 6 67 5 67 -10 0 -18 -6 -19 -172 -40 -127
-15 -130 -33 -5 -25 50 4 112 8 137 9 l45 2 3 -62 c4 -79 2 -80 -171 -88 -111
-6 -129 -9 -138 -26 -7 -15 -21 -19 -59 -19 -26 0 -55 -3 -64 -6 -18 -7 -21
-41 -6 -64 8 -12 10 -9 10 13 0 24 4 27 33 27 l34 0 8 -302 c8 -338 9 -348 24
-436 13 -72 11 -79 -23 -79 -24 0 -25 3 -32 78 -4 44 -11 82 -15 85 -5 3 -9
-38 -9 -91 0 -94 -1 -96 -22 -93 -21 3 -24 10 -28 68 l-5 65 -8 -64 c-8 -70
-10 -76 -26 -66 -7 4 -11 80 -11 221 0 118 -4 214 -9 214 -12 0 -21 -104 -21
-249 0 -135 -7 -201 -21 -201 -5 0 -9 20 -9 45 0 25 -4 45 -10 45 -5 0 -10
-17 -10 -38 l0 -38 -64 -2 -65 -2 11 31 c13 37 2 52 -11 15 -7 -16 -18 -26
-31 -26 -11 0 -20 1 -20 3 0 1 9 26 21 56 12 34 20 75 19 110 -1 31 6 81 16
111 15 46 18 95 18 313 1 192 4 257 13 257 7 0 13 -19 16 -47 3 -45 4 -44 5
13 l2 61 -57 7 c-335 38 -358 41 -361 57 -3 15 9 16 90 13 l93 -3 -88 11 c-73
9 -87 13 -84 27 2 9 10 14 18 12 8 -2 68 -5 134 -7 88 -2 109 -1 80 6 -22 5
-67 9 -100 10 -85 1 -135 10 -135 26 0 7 16 16 35 20 35 6 44 17 25 29 -5 3
-10 13 -10 22 0 14 13 15 103 10 59 -3 92 -2 77 3 -14 4 -44 8 -67 9 -23 1
-45 6 -48 11 -3 6 -17 10 -30 10 -19 0 -22 4 -18 21 5 19 11 21 49 15 228 -31
589 -32 819 -2 55 8 106 14 113 15 8 0 12 -5 10 -11z m-4589 -47 c41 -43 50
-48 79 -44 36 6 38 11 17 39 -19 26 -19 34 3 34 11 0 36 -24 60 -57 23 -32 42
-52 42 -46 0 6 -11 25 -25 41 -14 17 -25 34 -25 40 0 6 -5 12 -12 14 -17 6 0
28 23 28 10 0 19 -4 19 -8 0 -4 27 -49 59 -99 42 -65 75 -103 112 -129 33 -24
68 -63 97 -108 66 -103 152 -210 152 -188 0 5 -7 15 -16 23 -12 10 -14 25 -10
63 3 28 10 128 15 221 5 94 10 173 10 178 1 4 39 7 86 7 94 0 91 2 97 -80 3
-35 3 -35 32 28 26 56 32 63 55 60 22 -3 27 -9 29 -38 6 -58 22 -60 22 -2 0
49 2 52 25 52 29 0 30 -5 15 -112 -5 -40 -14 -151 -19 -247 -6 -112 -13 -176
-20 -181 -7 -4 -10 -17 -6 -32 5 -18 2 -29 -9 -35 -24 -13 -33 -71 -12 -79 13
-5 16 -24 16 -121 0 -102 -2 -114 -15 -103 -10 8 -16 33 -17 74 l-2 61 -3 -54
c-3 -43 1 -67 22 -114 l27 -59 -21 -22 c-14 -15 -21 -34 -20 -57 1 -27 3 -29
6 -9 5 28 21 50 34 50 11 0 12 -100 2 -101 -56 -8 -68 -3 -74 26 l-7 30 -1
-27 c-1 -21 -6 -28 -21 -28 -13 0 -20 7 -20 18 0 10 -12 29 -26 43 -26 23 -26
23 -20 2 8 -27 -9 -39 -31 -21 -17 14 -77 89 -103 128 -27 41 -59 75 -60 63 0
-7 14 -34 30 -60 17 -26 26 -49 20 -51 -13 -5 -13 -29 1 -34 5 -2 13 -22 16
-44 5 -38 3 -42 -28 -62 -41 -27 -29 -40 -150 168 -100 172 -269 430 -281 430
-14 0 -9 -39 6 -47 8 -4 26 -30 40 -57 l26 -49 -16 -116 c-16 -117 -46 -269
-65 -328 -13 -40 -34 -44 -25 -5 4 21 2 19 -12 -10 -14 -31 -20 -35 -35 -27
-12 7 -16 18 -12 37 l5 27 -11 -27 c-7 -20 -18 -28 -35 -28 -13 0 -24 5 -24
11 0 8 -4 8 -14 0 -10 -9 -20 -9 -40 0 -14 7 -26 16 -26 21 0 4 -16 8 -36 8
-32 0 -35 2 -29 23 5 19 4 20 -5 5 -10 -16 -50 -26 -50 -13 0 2 21 94 46 202
59 256 78 410 69 571 -4 86 -3 122 4 117 6 -3 11 -31 11 -61 0 -60 19 -76 21
-16 l1 37 16 -37 c10 -22 24 -38 34 -38 9 0 22 -8 27 -17 8 -14 10 -15 10 -3
1 8 -8 26 -19 40 -11 14 -20 29 -20 33 0 8 -91 130 -123 167 -27 30 -57 78
-57 91 0 7 3 9 7 6 3 -4 11 0 17 9 6 8 21 16 34 17 12 0 22 7 22 13 0 7 8 15
18 17 9 3 19 5 21 6 2 0 24 -21 50 -48z m3321 -4 c0 -29 -7 -154 -15 -278 -8
-123 -17 -266 -21 -316 -3 -56 -10 -93 -17 -93 -15 0 -47 -31 -47 -47 0 -19
37 -16 48 4 8 13 11 7 17 -26 4 -23 5 -44 3 -45 -11 -10 -128 -91 -156 -108
-42 -26 -34 -36 12 -14 19 9 38 16 43 16 4 0 19 9 33 20 14 11 33 20 42 20 9
0 19 6 21 13 3 6 6 2 6 -10 1 -12 4 -28 7 -37 4 -10 1 -16 -9 -16 -9 0 -18 -8
-22 -17 -3 -10 -24 -30 -46 -46 -48 -33 -56 -51 -35 -72 32 -33 10 -74 -31
-58 -10 4 -14 2 -10 -4 4 -6 -11 -9 -38 -9 -30 1 -45 5 -45 14 0 7 5 10 10 7
6 -3 10 1 10 9 0 19 26 21 33 4 3 -7 6 -3 6 10 1 26 18 30 24 5 3 -11 5 -7 6
10 1 21 -4 27 -20 27 -11 0 -29 -5 -39 -10 -11 -6 -43 -15 -71 -20 -28 -6 -96
-28 -150 -49 -95 -39 -229 -66 -216 -44 4 7 -10 9 -41 6 -63 -7 -46 12 34 37
33 10 49 19 36 19 -42 1 -90 36 -105 75 -4 10 -10 16 -13 13 -4 -3 3 -22 14
-42 17 -27 18 -35 7 -35 -8 0 -19 9 -25 20 -12 23 -50 27 -50 6 0 -8 5 -18 10
-21 6 -3 10 -14 10 -25 0 -32 -39 -11 -66 36 -14 24 -30 44 -35 44 -13 0 -11
-7 7 -35 26 -39 -1 -29 -34 13 -136 172 -148 447 -43 952 20 96 32 135 42 135
8 0 17 -15 20 -35 6 -32 7 -33 14 -12 8 23 42 27 38 4 -2 -7 2 -12 7 -12 6 0
10 5 10 10 0 6 6 10 14 10 16 0 26 -30 26 -82 0 -74 24 -92 34 -25 18 121 17
118 39 115 13 -2 24 -13 27 -28 6 -25 6 -25 12 -2 4 16 14 22 32 22 14 0 26
-4 26 -10 0 -5 -14 -51 -30 -102 -68 -210 -86 -430 -45 -567 34 -112 115 -235
115 -174 0 14 5 12 25 -10 26 -27 45 -35 45 -18 0 6 -4 13 -10 16 -21 13 -8
23 38 30 59 9 102 27 123 51 14 16 15 28 6 79 -11 67 -12 432 -2 598 5 82 10
107 21 107 8 0 14 -4 14 -8 0 -11 123 -3 193 13 l57 13 0 -64 c0 -36 4 -64 10
-64 6 0 10 30 10 70 0 55 3 71 18 79 29 17 32 13 32 -42z m2345 36 c-7 -19
-10 -49 -13 -175 l-2 -78 -185 0 c-112 0 -185 4 -185 10 0 5 39 11 88 13 l87
3 -97 2 c-53 1 -99 6 -103 11 -3 6 -15 9 -27 8 -22 -2 -22 5 -5 -261 2 -24 -4
-31 -41 -50 -38 -19 -64 -57 -49 -72 8 -9 78 27 72 37 -3 4 14 13 37 19 24 6
54 15 68 20 14 5 71 10 127 13 82 3 100 1 96 -10 -3 -7 0 -13 6 -13 7 0 11
-34 11 -100 l0 -100 -42 -1 c-128 -4 -357 4 -386 13 -18 5 -36 7 -40 3 -15
-15 41 -43 97 -50 l58 -7 5 -99 c3 -55 7 -101 9 -103 2 -3 20 -1 39 4 19 4 28
9 20 10 -8 2 8 6 35 11 28 4 73 13 100 18 28 6 77 15 111 20 33 6 73 15 89 21
34 13 43 6 24 -16 -11 -13 -11 -18 -1 -21 18 -7 15 -23 -5 -23 -15 0 -15 -1 1
-13 17 -13 18 -19 6 -80 -12 -56 -17 -67 -34 -68 -16 0 -17 -2 -6 -7 8 -4 16
-23 18 -44 4 -38 3 -38 -35 -38 -21 1 -81 7 -133 16 -52 8 -108 16 -125 19
-55 8 -75 15 -75 25 0 6 8 10 18 11 11 1 9 4 -8 9 -14 4 -19 8 -12 9 14 1 17
31 2 31 -18 0 -60 -23 -60 -34 0 -6 -5 -27 -10 -46 -10 -38 -41 -50 -67 -28
-9 7 -13 7 -13 -1 0 -14 -63 -8 -68 8 -6 17 -20 13 -25 -6 -4 -15 -6 -14 -12
5 -7 22 -8 22 -28 5 -20 -18 -20 -18 -14 21 6 41 17 59 24 40 5 -16 52 -5 74
17 23 23 24 39 2 77 -15 27 -21 29 -53 25 -54 -9 -63 -20 -56 -75 7 -53 -15
-123 -36 -115 -7 2 -12 9 -11 15 2 6 -4 9 -12 6 -8 -4 -15 -10 -15 -15 0 -5
-9 -9 -20 -9 -14 0 -20 7 -20 23 -1 21 -1 21 -15 3 -21 -27 -45 -13 -45 26 0
39 12 60 31 56 10 -2 20 23 36 87 34 139 46 263 40 409 -7 176 -58 424 -92
451 -7 6 -15 20 -19 33 -6 19 -4 22 21 24 15 1 36 2 45 3 9 0 20 4 24 8 10 9
41 9 47 0 2 -5 2 -3 1 4 -3 11 25 28 33 19 2 -2 13 -26 23 -54 19 -49 19 -50
0 -67 -29 -26 -26 -69 5 -83 38 -17 53 -15 81 13 25 25 25 26 7 55 -9 17 -24
30 -33 30 -12 0 -16 14 -18 65 -3 54 -1 65 13 65 8 0 19 -10 24 -22 l8 -23 7
23 c9 26 21 28 35 5 10 -17 10 -17 11 0 0 11 8 17 23 17 18 0 28 -10 42 -40
10 -22 21 -40 24 -40 11 0 32 40 26 50 -8 12 78 28 240 44 198 19 188 19 180
-1z m-6555 -303 c0 -5 -5 -10 -11 -10 -5 0 -7 5 -4 10 3 6 8 10 11 10 2 0 4
-4 4 -10z m-16 -93 c-5 -26 -7 -27 -19 -10 -9 11 -10 22 -4 28 5 5 9 20 10 35
l0 25 10 -24 c5 -14 7 -38 3 -54z m4202 -627 c8 0 14 -4 14 -10 0 -5 -5 -10
-11 -10 -8 0 -10 -12 -6 -35 6 -38 -6 -53 -28 -35 -12 10 -15 9 -15 -5 0 -24
-12 -11 -26 28 -10 30 -9 34 20 59 17 14 33 22 34 17 2 -5 10 -9 18 -9z m1531
-26 c-3 -3 -12 -4 -19 -1 -8 3 -5 6 6 6 11 1 17 -2 13 -5z m-4091 -121 c-11
-11 -19 6 -11 24 8 17 8 17 12 0 3 -10 2 -21 -1 -24z m54 28 c0 -6 -4 -13 -10
-16 -5 -3 -10 1 -10 9 0 9 5 16 10 16 6 0 10 -4 10 -9z m3175 -241 c5 -8 11
-7 21 1 27 22 43 3 47 -58 l3 -58 2 64 c2 60 3 63 25 57 12 -3 43 -6 69 -6 39
0 49 -4 59 -22 23 -43 2 -213 -29 -236 -14 -11 -20 -10 -34 9 -10 12 -18 32
-18 45 0 22 -4 24 -44 24 -25 0 -56 4 -70 10 -23 8 -26 15 -26 55 0 57 -18 59
-22 3 l-3 -43 -32 31 c-28 28 -31 36 -27 70 3 22 7 45 10 52 4 15 60 16 69 2z"/>
<path d="M3720 6959 c0 -15 7 -32 15 -39 19 -16 19 -11 0 31 -14 33 -14 33
-15 8z"/>
<path d="M3568 6923 c7 -3 16 -2 19 1 4 3 -2 6 -13 5 -11 0 -14 -3 -6 -6z"/>
<path d="M3470 6810 c-6 -11 -8 -20 -6 -20 3 0 10 9 16 20 6 11 8 20 6 20 -3
0 -10 -9 -16 -20z"/>
<path d="M3382 6580 c0 -14 2 -19 5 -12 2 6 2 18 0 25 -3 6 -5 1 -5 -13z"/>
<path d="M3492 6228 c-7 -7 -12 -21 -12 -33 0 -30 19 -45 55 -45 35 0 55 15
55 43 0 39 -70 63 -98 35z"/>
<path d="M4787 6913 c-11 -19 -19 -78 -9 -68 11 11 27 75 18 75 -2 0 -7 -3 -9
-7z"/>
<path d="M4800 6649 c0 -5 5 -7 10 -4 6 3 10 8 10 11 0 2 -4 4 -10 4 -5 0 -10
-5 -10 -11z"/>
<path d="M4777 6620 c-3 -11 -1 -20 4 -20 5 0 9 9 9 20 0 11 -2 20 -4 20 -2 0
-6 -9 -9 -20z"/>
<path d="M4792 6585 c-18 -27 -32 -57 -32 -68 0 -10 -6 -33 -14 -50 -16 -37
-36 -96 -36 -108 0 -5 5 -9 10 -9 6 0 10 7 10 15 0 8 6 15 13 15 6 1 26 7 42
15 l30 15 -35 -6 c-45 -6 -20 11 30 21 35 7 120 51 120 62 0 3 -11 2 -25 -1
-21 -5 -27 -1 -41 31 -9 21 -22 55 -28 77 l-12 38 -32 -47z"/>
<path d="M5110 6601 c0 -6 4 -13 10 -16 6 -3 7 1 4 9 -7 18 -14 21 -14 7z"/>
<path d="M5075 6544 l-30 -14 33 6 c31 5 39 -3 33 -38 0 -5 4 -8 9 -8 13 0 12
20 -3 47 -11 20 -14 20 -42 7z"/>
<path d="M5020 6530 c0 -5 5 -10 11 -10 5 0 7 5 4 10 -3 6 -8 10 -11 10 -2 0
-4 -4 -4 -10z"/>
<path d="M4943 6420 c-29 -12 -30 -47 -1 -71 25 -22 29 -23 62 -7 44 19 45 70
3 82 -28 7 -37 7 -64 -4z"/>
<path d="M4551 6345 c0 -5 -11 -10 -23 -11 -42 -1 -67 -15 -68 -35 0 -3 14
-23 30 -44 17 -21 30 -33 30 -26 0 6 6 11 13 11 8 0 21 8 30 18 18 20 23 52 8
52 -5 0 -12 10 -14 23 -2 12 -5 18 -6 12z"/>
<path d="M5888 7083 c7 -3 16 -2 19 1 4 3 -2 6 -13 5 -11 0 -14 -3 -6 -6z"/>
<path d="M6168 7033 c7 -3 16 -2 19 1 4 3 -2 6 -13 5 -11 0 -14 -3 -6 -6z"/>
<path d="M6208 7023 c7 -3 16 -2 19 1 4 3 -2 6 -13 5 -11 0 -14 -3 -6 -6z"/>
<path d="M5625 6940 c-15 -17 -16 -24 -7 -45 9 -20 19 -25 47 -25 29 0 38 5
47 26 11 23 10 29 -11 45 -30 24 -53 24 -76 -1z"/>
<path d="M5592 6925 c0 -16 2 -22 5 -12 2 9 2 23 0 30 -3 6 -5 -1 -5 -18z"/>
<path d="M5591 6864 c0 -11 3 -14 6 -6 3 7 2 16 -1 19 -3 4 -6 -2 -5 -13z"/>
<path d="M5690 6671 c5 -11 15 -23 21 -27 6 -3 3 5 -6 20 -20 30 -30 35 -15 7z"/>
<path d="M5717 6612 c-41 -45 5 -90 67 -66 19 7 21 55 4 72 -18 18 -53 15 -71
-6z"/>
<path d="M7067 6910 c-3 -8 -8 -28 -11 -45 l-5 -30 15 34 c8 18 13 38 11 45
-3 7 -7 5 -10 -4z"/>
<path d="M7075 6650 c4 -6 11 -8 16 -5 14 9 11 15 -7 15 -8 0 -12 -5 -9 -10z"/>
<path d="M7057 6621 c-4 -17 -3 -21 5 -13 5 5 8 16 6 23 -3 8 -7 3 -11 -10z"/>
<path d="M7073 6587 c-11 -18 -27 -50 -34 -72 -7 -22 -21 -66 -32 -98 -20 -58
-17 -84 6 -54 6 8 28 23 47 31 31 14 32 16 7 11 -17 -3 -26 -2 -23 3 3 6 23
13 43 17 35 6 123 50 123 61 0 3 -12 3 -26 2 -22 -3 -28 4 -47 47 -39 88 -39
88 -64 52z"/>
<path d="M7390 6605 c0 -5 5 -17 10 -25 5 -8 10 -10 10 -5 0 6 -5 17 -10 25
-5 8 -10 11 -10 5z"/>
<path d="M7351 6544 c-18 -7 -37 -11 -42 -8 -5 3 -9 0 -9 -5 0 -14 11 -14 47
0 22 8 30 7 40 -7 7 -9 10 -21 7 -25 -3 -5 0 -9 6 -9 8 0 10 9 5 28 -9 39 -16
42 -54 26z"/>
<path d="M7420 6540 c0 -5 5 -10 11 -10 5 0 7 5 4 10 -3 6 -8 10 -11 10 -2 0
-4 -4 -4 -10z"/>
<path d="M7230 6423 c-37 -15 -40 -54 -4 -78 22 -14 31 -15 55 -5 24 10 29 18
29 45 0 25 -5 34 -22 39 -27 7 -37 7 -58 -1z"/>
<path d="M6775 6333 c-12 -2 -26 -12 -33 -23 -10 -16 -6 -24 23 -53 19 -19 35
-31 35 -26 0 5 6 9 13 9 8 0 22 9 32 20 16 17 16 23 4 47 -14 28 -34 35 -74
26z"/>
<path d="M6090 6556 c0 -2 7 -7 16 -10 8 -3 12 -2 9 4 -6 10 -25 14 -25 6z"/>
<path d="M5978 6483 c7 -3 16 -2 19 1 4 3 -2 6 -13 5 -11 0 -14 -3 -6 -6z"/>
<path d="M6283 6353 c-3 -10 -8 -22 -11 -27 -3 -5 0 -6 6 -2 18 11 35 46 22
46 -6 0 -13 -8 -17 -17z"/>
<path d="M6230 6265 c-14 -8 -32 -14 -41 -15 -9 0 -24 -9 -35 -21 -19 -21 -18
-21 9 -45 33 -29 49 -30 69 -6 13 14 35 103 26 102 -2 -1 -14 -7 -28 -15z"/>
<path d="M5898 6173 c7 -3 16 -2 19 1 4 3 -2 6 -13 5 -11 0 -14 -3 -6 -6z"/>
<path d="M4695 5230 c3 -5 8 -10 11 -10 2 0 4 5 4 10 0 6 -5 10 -11 10 -5 0
-7 -4 -4 -10z"/>
<path d="M4650 5169 c0 -15 7 -32 15 -39 12 -10 15 -9 15 7 0 10 -7 28 -15 39
-14 18 -14 18 -15 -7z"/>
<path d="M4490 5129 c0 -5 5 -7 10 -4 6 3 10 8 10 11 0 2 -4 4 -10 4 -5 0 -10
-5 -10 -11z"/>
<path d="M4231 4724 c0 -11 3 -14 6 -6 3 7 2 16 -1 19 -3 4 -6 -2 -5 -13z"/>
<path d="M4399 4349 c-33 -33 -4 -89 48 -89 25 0 63 32 63 53 0 21 -44 57 -68
57 -12 0 -31 -9 -43 -21z"/>
<path d="M1977 5120 c-10 -29 -26 -104 -23 -108 7 -6 38 98 33 111 -3 9 -6 8
-10 -3z"/>
<path d="M2241 4934 c0 -11 3 -14 6 -6 3 7 2 16 -1 19 -3 4 -6 -2 -5 -13z"/>
<path d="M1991 4773 c-15 -16 -69 -158 -90 -235 -10 -33 -10 -51 -2 -65 10
-17 10 -17 11 0 0 9 8 17 18 17 14 0 15 2 2 10 -18 11 -13 16 36 35 36 14 37
15 7 9 -54 -9 -37 13 20 26 56 13 168 71 150 77 -7 3 -21 0 -32 -6 -11 -6 -22
-11 -24 -11 -3 0 -19 36 -38 80 -18 44 -35 80 -38 80 -3 -1 -12 -8 -20 -17z"/>
<path d="M2295 4705 l-30 -14 35 2 c32 2 35 0 35 -25 -1 -16 5 -28 12 -28 16
0 16 8 2 49 -12 35 -13 35 -54 16z"/>
<path d="M2226 4681 c-4 -5 3 -7 14 -4 23 6 26 13 6 13 -8 0 -17 -4 -20 -9z"/>
<path d="M2153 4568 c-38 -19 -40 -48 -4 -80 27 -24 34 -26 58 -17 15 6 31 16
35 22 10 16 10 49 0 64 -11 18 -63 24 -89 11z"/>
<path d="M1709 4476 c-3 -3 -24 -6 -47 -7 -47 -3 -60 -21 -41 -62 17 -37 53
-54 82 -38 32 17 52 50 38 64 -6 6 -11 19 -11 29 0 17 -11 24 -21 14z"/>
<path d="M9095 5237 c-30 -49 -31 -55 -2 -22 l26 30 10 -25 c11 -27 14 -8 5
28 -8 30 -15 28 -39 -11z"/>
<path d="M8912 5200 c0 -14 2 -19 5 -12 2 6 2 18 0 25 -3 6 -5 1 -5 -13z"/>
<path d="M9146 5110 c10 -21 19 -30 22 -21 2 7 -6 23 -18 35 l-22 21 18 -35z"/>
<path d="M9066 5063 c-6 -14 -5 -15 5 -6 7 7 10 15 7 18 -3 3 -9 -2 -12 -12z"/>
<path d="M9052 4885 c0 -16 2 -22 5 -12 2 9 2 23 0 30 -3 6 -5 -1 -5 -18z"/>
<path d="M9003 4845 c0 -22 2 -30 4 -17 2 12 2 30 0 40 -3 9 -5 -1 -4 -23z"/>
<path d="M9081 4853 c-7 -8 -11 -16 -8 -19 2 -2 10 2 17 11 17 20 9 27 -9 8z"/>
<path d="M8931 4824 c0 -11 3 -14 6 -6 3 7 2 16 -1 19 -3 4 -6 -2 -5 -13z"/>
<path d="M8931 4769 c-2 -42 27 -124 51 -145 l21 -19 -21 30 c-12 17 -29 59
-36 95 -8 36 -15 53 -15 39z"/>
<path d="M9079 4633 c-13 -16 -12 -17 4 -4 16 13 21 21 13 21 -2 0 -10 -8 -17
-17z"/>
<path d="M8997 4481 c3 -14 12 -38 19 -55 l13 -31 1 28 c0 15 -4 27 -8 27 -5
0 -13 12 -20 28 -9 23 -10 23 -5 3z"/>
<path d="M9063 4300 c0 -25 2 -35 4 -22 2 12 2 32 0 45 -2 12 -4 2 -4 -23z"/>
<path d="M9155 4291 c-3 -5 -1 -12 5 -16 5 -3 10 1 10 9 0 18 -6 21 -15 7z"/>
<path d="M9052 4175 c0 -16 2 -22 5 -12 2 9 2 23 0 30 -3 6 -5 -1 -5 -18z"/>
<path d="M6965 5225 c-14 -13 -25 -29 -25 -34 0 -11 83 -71 98 -71 15 0 42 47
42 74 0 29 -33 56 -68 56 -12 0 -34 -11 -47 -25z"/>
<path d="M6785 5190 c-3 -5 -1 -10 4 -10 6 0 11 5 11 10 0 6 -2 10 -4 10 -3 0
-8 -4 -11 -10z"/>
<path d="M7088 5093 c6 -2 18 -2 25 0 6 3 1 5 -13 5 -14 0 -19 -2 -12 -5z"/>
<path d="M7423 5093 c9 -2 23 -2 30 0 6 3 -1 5 -18 5 -16 0 -22 -2 -12 -5z"/>
<path d="M7110 5005 c-36 -7 -82 -13 -102 -14 -29 -1 -38 -5 -37 -18 0 -11 3
-13 6 -5 2 6 13 12 24 12 10 0 19 -6 19 -12 0 -10 2 -10 9 0 5 8 35 16 70 19
33 3 66 12 72 19 6 8 10 13 8 13 -2 -1 -33 -7 -69 -14z"/>
<path d="M6904 4785 c0 -49 1 -71 3 -48 2 23 2 64 0 90 -2 26 -3 8 -3 -42z"/>
<path d="M6970 4850 c0 -5 5 -10 11 -10 5 0 7 5 4 10 -3 6 -8 10 -11 10 -2 0
-4 -4 -4 -10z"/>
<path d="M7201 4164 c0 -11 3 -14 6 -6 3 7 2 16 -1 19 -3 4 -6 -2 -5 -13z"/>
<path d="M3823 5205 c0 -22 2 -30 4 -17 2 12 2 30 0 40 -3 9 -5 -1 -4 -23z"/>
<path d="M3022 5174 c-30 -21 -28 -58 4 -83 15 -12 32 -21 39 -21 7 0 24 9 39
21 28 22 34 60 13 77 -23 19 -72 22 -95 6z"/>
<path d="M3731 5114 c0 -11 3 -14 6 -6 3 7 2 16 -1 19 -3 4 -6 -2 -5 -13z"/>
<path d="M3608 5089 c-9 -16 -14 -29 -9 -29 9 0 36 48 30 54 -2 3 -12 -9 -21
-25z"/>
<path d="M3200 4988 c62 -87 117 -154 104 -128 -10 21 -144 199 -155 206 -5 2
18 -32 51 -78z"/>
<path d="M3200 5041 c0 -6 4 -13 10 -16 6 -3 7 1 4 9 -7 18 -14 21 -14 7z"/>
<path d="M3612 5003 c-13 -21 -25 -56 -26 -82 -2 -25 -2 -35 1 -23 2 13 18 49
34 80 32 63 32 62 22 62 -5 -1 -18 -17 -31 -37z"/>
<path d="M3650 4953 c-29 -33 -32 -41 -28 -89 5 -52 41 -124 64 -124 17 0 43
71 50 141 6 60 4 69 -15 88 -28 28 -34 27 -71 -16z"/>
<path d="M3790 4951 c0 -6 4 -13 10 -16 6 -3 7 1 4 9 -7 18 -14 21 -14 7z"/>
<path d="M2910 4900 c0 -16 5 -30 10 -30 6 0 10 14 10 30 0 17 -4 30 -10 30
-5 0 -10 -13 -10 -30z"/>
<path d="M3810 4878 c0 -18 -9 -53 -20 -77 -11 -24 -19 -46 -16 -48 2 -2 11
13 21 34 18 38 33 123 21 123 -3 0 -6 -15 -6 -32z"/>
<path d="M3020 4864 c0 -8 5 -12 10 -9 6 3 10 10 10 16 0 5 -4 9 -10 9 -5 0
-10 -7 -10 -16z"/>
<path d="M2961 4754 c0 -11 3 -14 6 -6 3 7 2 16 -1 19 -3 4 -6 -2 -5 -13z"/>
<path d="M3570 4760 c0 -5 5 -10 11 -10 5 0 7 5 4 10 -3 6 -8 10 -11 10 -2 0
-4 -4 -4 -10z"/>
<path d="M3755 4729 c-4 -6 -5 -12 -2 -15 2 -3 7 2 10 11 7 17 1 20 -8 4z"/>
<path d="M3121 4624 c0 -11 3 -14 6 -6 3 7 2 16 -1 19 -3 4 -6 -2 -5 -13z"/>
<path d="M3280 4602 c0 -5 7 -15 15 -22 8 -7 15 -8 15 -2 0 5 -7 15 -15 22 -8
7 -15 8 -15 2z"/>
<path d="M3716 4570 c-12 -4 -15 -9 -9 -13 6 -4 25 -32 42 -62 17 -30 36 -55
41 -55 19 0 10 39 -16 65 -14 14 -29 36 -33 49 -4 18 -11 22 -25 16z"/>
<path d="M3310 4554 c0 -3 11 -20 25 -38 14 -18 25 -37 25 -42 0 -5 12 -22 26
-39 l26 -30 -25 45 c-43 80 -62 110 -69 110 -5 0 -8 -3 -8 -6z"/>
<path d="M3612 4414 c-24 -17 -30 -62 -10 -82 16 -16 83 -15 95 1 23 29 21 57
-4 77 -31 24 -51 25 -81 4z"/>
<path d="M3410 4391 c0 -5 5 -13 10 -16 6 -3 10 -2 10 4 0 5 -4 13 -10 16 -5
3 -10 2 -10 -4z"/>
<path d="M3055 4330 c-4 -17 -5 -34 -2 -36 2 -3 7 10 11 27 8 42 0 50 -9 9z"/>
<path d="M3122 4305 c0 -16 2 -22 5 -12 2 9 2 23 0 30 -3 6 -5 -1 -5 -18z"/>
<path d="M2861 4304 c0 -11 3 -14 6 -6 3 7 2 16 -1 19 -3 4 -6 -2 -5 -13z"/>
<path d="M2992 4245 c0 -16 2 -22 5 -12 2 9 2 23 0 30 -3 6 -5 -1 -5 -18z"/>
<path d="M3051 4224 c0 -11 3 -14 6 -6 3 7 2 16 -1 19 -3 4 -6 -2 -5 -13z"/>
<path d="M6093 5085 c0 -33 2 -45 4 -27 2 18 2 45 0 60 -2 15 -4 0 -4 -33z"/>
<path d="M5983 4890 c0 -30 2 -43 4 -27 2 15 2 39 0 55 -2 15 -4 2 -4 -28z"/>
<path d="M6014 4860 c2 -30 10 -71 19 -90 l15 -35 0 40 c0 22 -2 33 -6 25 -3
-8 -12 13 -19 50 l-12 65 3 -55z"/>
<path d="M6210 4840 c0 -22 5 -40 10 -40 6 0 10 18 10 40 0 22 -4 40 -10 40
-5 0 -10 -18 -10 -40z"/>
<path d="M6092 4810 c0 -14 2 -19 5 -12 2 6 2 18 0 25 -3 6 -5 1 -5 -13z"/>
<path d="M5490 4582 c0 -30 26 -109 53 -159 27 -51 28 -39 2 26 -12 33 -26 82
-30 110 -7 54 -25 70 -25 23z"/>
<path d="M6001 4507 c-6 -8 -14 -27 -17 -43 -5 -25 -2 -32 21 -42 37 -17 58
-15 83 8 27 26 28 44 2 70 -23 23 -72 26 -89 7z"/>
<path d="M5311 4464 c0 -11 3 -14 6 -6 3 7 2 16 -1 19 -3 4 -6 -2 -5 -13z"/>
<path d="M5411 4406 c-19 -20 -20 -27 -10 -50 9 -19 20 -26 40 -26 15 0 31 -5
35 -11 9 -16 43 29 44 57 0 51 -70 71 -109 30z"/>
<path d="M5630 4281 c34 -55 39 -57 85 -37 l30 13 -30 7 c-16 4 -49 21 -73 38
l-43 30 31 -51z"/>
<path d="M8000 4955 c0 -92 13 -114 24 -39 11 81 8 124 -9 124 -12 0 -15 -16
-15 -85z"/>
<path d="M7992 4790 c0 -14 2 -19 5 -12 2 6 2 18 0 25 -3 6 -5 1 -5 -13z"/>
<path d="M8021 4686 c-14 -16 2 -51 28 -61 21 -8 27 3 13 25 -6 11 -9 26 -6
35 8 19 -19 20 -35 1z"/>
<path d="M8168 4689 c-22 -12 -23 -52 -2 -73 18 -18 56 -21 85 -6 22 12 26 59
7 78 -15 15 -66 15 -90 1z"/>
<path d="M8110 4204 c0 -8 5 -12 10 -9 6 4 8 11 5 16 -9 14 -15 11 -15 -7z"/>
<path d="M7092 3870 c0 -14 2 -19 5 -12 2 6 2 18 0 25 -3 6 -5 1 -5 -13z"/>
<path d="M7046 3831 c-4 -7 -5 -15 -2 -18 9 -9 19 4 14 18 -4 11 -6 11 -12 0z"/>
<path d="M7020 3790 c0 -5 5 -10 10 -10 6 0 10 5 10 10 0 6 -4 10 -10 10 -5 0
-10 -4 -10 -10z"/>
<path d="M2213 7194 c-9 -24 10 -49 38 -49 25 0 32 17 17 48 -11 22 -47 22
-55 1z"/>
<path d="M2317 7192 c-22 -24 -21 -39 0 -51 20 -11 53 3 53 23 0 7 -8 20 -18
30 -18 15 -20 15 -35 -2z"/>
<path d="M2507 6710 c-3 -11 -1 -20 4 -20 5 0 9 9 9 20 0 11 -2 20 -4 20 -2 0
-6 -9 -9 -20z"/>
</g>
</svg>
